# xmcd
#
# Track frame offsets:
#       150
#       31392
#       62560
#       90646
#       114000
#       137612
#       158940
#       176410
#       202948
#       232150
#       248136
#       273248
#       298424
#
# Disc length: 4301 seconds
#
# Revision: 0
# Processed by: cddbd v1.5PL3 Copyright (c) Steve Scherf et al.
# Submitted via: CD-DA_X-Tractor v0.24
#
DISCID=b210cb0d
DTITLE=Willie Colon - El Albun De Oro de Willie Colon
DYEAR=2000
DGENRE=Salsa
TTITLE0=El Gran Baron
TTITLE1=Gitana
TTITLE2=Oh Que Sera
TTITLE3=Guaracha
TTITLE4=Idilio
TTITLE5=Talento de Television
TTITLE6=Demasiado Corazon
TTITLE7=Asia
TTITLE8=Te Estan Buscando
TTITLE9=Che Che Cole
TTITLE10=Volo
TTITLE11=La Murga
TTITLE12=Sin Poderte Hablar
EXTD=
EXTT0=
EXTT1=
EXTT2=
EXTT3=
EXTT4=
EXTT5=
EXTT6=
EXTT7=
EXTT8=
EXTT9=
EXTT10=
EXTT11=
EXTT12=
PLAYORDER=
